<svg width="34" height="34" viewBox="0 0 34 34" fill="none" xmlns="http://www.w3.org/2000/svg">
<path fill-rule="evenodd" clip-rule="evenodd" d="M17 -1.48619e-06C7.61116 -2.30699e-06 2.30699e-06 7.61116 1.48619e-06 17C6.65389e-07 26.3888 7.61116 34 17 34C26.3888 34 34 26.3888 34 17C34 7.61116 26.3888 -6.65389e-07 17 -1.48619e-06ZM12.4393 22.9393C11.8536 23.5251 11.8536 24.4749 12.4393 25.0607C13.0251 25.6464 13.9749 25.6464 14.5607 25.0607L22.0607 17.5607C22.6464 16.9749 22.6464 16.0251 22.0607 15.4393L14.5607 7.93934C13.9749 7.35355 13.0251 7.35355 12.4393 7.93934C11.8536 8.52513 11.8536 9.47487 12.4393 10.0607L18.8787 16.5L12.4393 22.9393Z" fill="#F4F6FA"/>
</svg>
