<svg width="34" height="34" viewBox="0 0 34 34" fill="none" xmlns="http://www.w3.org/2000/svg">
<path fill-rule="evenodd" clip-rule="evenodd" d="M17 34C26.3888 34 34 26.3888 34 17C34 7.61116 26.3888 0 17 0C7.61116 0 0 7.61116 0 17C0 26.3888 7.61116 34 17 34ZM21.5607 11.0607C22.1464 10.4749 22.1464 9.52513 21.5607 8.93934C20.9749 8.35355 20.0251 8.35355 19.4393 8.93934L11.9393 16.4393C11.3536 17.0251 11.3536 17.9749 11.9393 18.5607L19.4393 26.0607C20.0251 26.6464 20.9749 26.6464 21.5607 26.0607C22.1464 25.4749 22.1464 24.5251 21.5607 23.9393L15.1213 17.5L21.5607 11.0607Z" fill="#F4F6FA"/>
</svg>
