<svg width="116" height="17" viewBox="0 0 116 17" fill="none" xmlns="http://www.w3.org/2000/svg">
<g opacity="0.95">
<path d="M2.0096 16.3556C1.48535 16.3556 0.931986 16.2395 0.553367 15.9491C0.32037 15.7458 -8.88812e-07 15.3393 -8.88812e-07 14.6714V0.820312H2.94158V13.1905C2.94158 13.3647 2.91246 13.6551 3.14546 13.8584C3.23283 13.9165 3.40758 14.0326 3.87357 14.0326H12.4362V16.3556H2.0096Z" fill="black"/>
<path d="M17.2125 2.38413C17.7659 1.07742 18.3775 0.641846 19.7755 0.641846C21.1152 0.641846 21.7851 1.07742 22.3385 2.38413L28.2217 16.3514H25.1344L23.5326 12.4313H16.0184L14.4456 16.3514H11.3584L17.2125 2.38413ZM16.7756 10.3405H22.7753L20.2415 4.01025C20.1541 3.77795 20.0085 3.37142 19.8046 3.37142C19.6007 3.37142 19.4551 3.80699 19.3677 4.01025L16.7756 10.3405Z" fill="black"/>
<path d="M38.7053 0.820312C39.5499 0.820312 40.7149 0.907427 41.5304 1.74953C42.4042 2.64971 42.5207 4.07257 42.5207 5.0889C42.5207 5.931 42.4624 6.80214 41.7925 7.61521C41.3557 8.13789 40.8897 8.3702 40.3363 8.42827V8.51539C41.0644 8.57346 41.676 8.92192 42.0547 9.32845C42.7828 10.1415 42.7828 11.245 42.7828 12.1161C42.7828 13.1324 42.7828 14.3811 41.8799 15.3684C40.977 16.3557 39.9868 16.3557 39.0257 16.3557H31.5698C30.7834 16.3557 30.0844 16.4428 29.4437 15.7459C29.2981 15.5716 28.9194 15.0489 28.9194 14.1778V3.05624C28.9194 2.47548 29.0651 1.86568 29.4146 1.45915C29.8805 0.907427 30.5795 0.820312 31.0747 0.820312H38.7053ZM31.8319 7.32483H37.5403C38.1228 7.32483 38.7344 7.32483 39.1422 6.77311C39.2587 6.62792 39.4626 6.25042 39.4626 5.20505C39.4626 4.76948 39.4334 4.01449 38.9383 3.54989C38.5014 3.14335 37.9772 3.14335 37.4821 3.14335H32.6765C32.4435 3.14335 32.1814 3.11432 32.0066 3.31758C31.8319 3.52085 31.8028 3.84027 31.8028 4.01449L31.8319 7.32483ZM31.8319 12.8711C31.8319 13.3938 31.8902 13.6551 32.0066 13.7713C32.2396 14.0326 32.7348 14.0036 32.9678 14.0036H37.5986C38.0646 14.0036 38.8801 13.9745 39.3169 13.4519C39.6373 13.0453 39.7247 12.3774 39.7247 11.8838C39.7247 11.4482 39.6664 10.7223 39.4043 10.3157C39.2296 10.0834 38.7927 9.67691 37.8316 9.67691H31.861L31.8319 12.8711Z" fill="black"/>
<path d="M44.5003 14.0326H53.1503C54.5483 14.0326 54.6065 12.8711 54.6065 12.3484C54.6065 11.7386 54.4609 11.0127 53.092 10.6061L46.9467 8.66058C46.7137 8.6025 45.7235 8.25404 45.1119 7.49906C44.4129 6.65695 44.2964 5.43736 44.2964 4.56622C44.2964 3.637 44.4129 2.50452 45.2866 1.69145C46.1021 0.936464 47.0924 0.820312 47.8496 0.820312H56.82V3.14335H48.869C48.4612 3.14335 47.9952 3.17239 47.6457 3.49181C47.2671 3.84027 47.238 4.39199 47.238 4.68237C47.238 5.37928 47.4418 6.04715 48.6942 6.42465L54.4026 8.22501C55.4511 8.54443 56.1501 8.89288 56.6161 9.32845C57.5481 10.2286 57.6355 11.5934 57.6355 12.3194C57.6355 13.3067 57.4898 14.3811 56.8491 15.1941C56.0627 16.1814 55.1016 16.2976 54.0531 16.2976H44.5003V14.0326Z" fill="black"/>
<path d="M63.5196 2.38339C64.073 1.07668 64.6846 0.641114 66.0826 0.641114C67.4223 0.641114 68.0922 1.07668 68.6455 2.38339L74.5287 16.3507H71.4415L69.8396 12.4305H62.3255L60.7527 16.3507H57.6655L63.5196 2.38339ZM63.0827 10.3398H69.0824L66.5486 4.00952C66.4612 3.77722 66.3156 3.37069 66.1117 3.37069C65.9078 3.37069 65.7622 3.80626 65.6748 4.00952L63.0827 10.3398Z" fill="black"/>
<path d="M77.2083 16.3556C76.6841 16.3556 76.1307 16.2395 75.7521 15.9491C75.5191 15.7458 75.1987 15.3393 75.1987 14.6714V0.820312H78.1403V13.1905C78.1403 13.3647 78.1112 13.6551 78.3442 13.8584C78.4315 13.9165 78.6063 14.0326 79.0723 14.0326H87.6348V16.3556H77.2083Z" fill="black"/>
<path d="M90.8962 16.3554C90.2263 16.3554 89.6147 16.3554 89.1196 15.8617C88.5954 15.3391 88.5371 14.6421 88.5371 14.0324V3.02694C88.5371 2.41715 88.741 1.77831 89.0613 1.40081C89.5856 0.849091 90.3428 0.791016 90.9253 0.791016H100.915V3.11406H92.498C92.2359 3.11406 91.9155 3.1431 91.6825 3.34636C91.4496 3.57867 91.4496 3.86904 91.4496 4.10135V7.23746H100.711V9.5605H91.4787V13.1902C91.4787 13.4226 91.5661 13.6839 91.7117 13.8C91.8864 13.9743 92.2359 14.0033 92.7019 14.0033H101.031V16.3264H90.8962V16.3554Z" fill="black"/>
<path d="M102.577 14.0326H111.198C112.596 14.0326 112.654 12.8711 112.654 12.3484C112.654 11.7386 112.508 11.0127 111.139 10.6061L104.994 8.66058C104.761 8.6025 103.771 8.25404 103.159 7.49906C102.46 6.65695 102.344 5.43736 102.344 4.56622C102.344 3.637 102.46 2.50452 103.334 1.69145C104.149 0.936464 105.14 0.820312 105.897 0.820312H114.867V3.14335H106.887C106.479 3.14335 106.013 3.17239 105.664 3.49181C105.285 3.84027 105.256 4.39199 105.256 4.68237C105.256 5.37928 105.46 6.04715 106.712 6.42465L112.421 8.22501C113.469 8.54443 114.168 8.89288 114.634 9.32845C115.566 10.2286 115.654 11.5934 115.654 12.3194C115.654 13.3067 115.508 14.3811 114.867 15.1941C114.081 16.1814 113.12 16.2976 112.071 16.2976H102.489V14.0326H102.577Z" fill="black"/>
</g>
</svg>
