<svg width="532" height="736" viewBox="0 0 532 736" fill="none" xmlns="http://www.w3.org/2000/svg">
<path d="M120.609 550.901C118.706 543.796 118.056 537.117 118.659 530.864C119.499 524.547 120.969 518.696 123.071 513.31C125.41 507.86 127.993 502.853 130.821 498.288C133.822 493.422 136.533 488.889 138.952 484.687C141.607 480.422 143.554 476.347 144.792 472.461C146.266 468.513 146.528 464.762 145.576 461.21C144.116 455.763 140.643 452.251 135.156 450.676C129.906 449.037 123.973 449.103 117.358 450.876C109.797 452.902 103.281 456.932 97.8074 462.968C92.3343 469.003 88.723 476.317 86.9735 484.908L15.4201 470.194C19.8291 450.737 29.7019 433.243 45.0385 417.711C60.3751 402.18 82.2191 390.615 110.57 383.019C129.235 378.018 146.472 376.191 162.28 377.54C178.26 378.588 191.868 383.064 203.102 390.969C214.273 398.636 221.857 409.93 225.854 424.85C228.266 433.85 228.974 442.163 227.979 449.791C227.221 457.355 225.295 464.344 222.202 470.756C219.282 476.869 216.03 482.69 212.447 488.219C208.864 493.748 205.336 499.009 201.862 504.001C198.561 508.693 196.001 513.313 194.181 517.862C192.598 522.347 192.409 526.84 193.614 531.34L120.609 550.901ZM183.573 639.876C169.87 643.548 157.537 642.411 146.575 636.464C135.549 630.281 128.481 621.387 125.371 609.783C122.199 597.941 123.904 586.823 130.488 576.429C137.073 566.035 147.216 559.002 160.919 555.33C174.859 551.595 187.16 552.614 197.823 558.387C208.722 564.097 215.758 572.872 218.931 584.713C222.04 596.318 220.367 607.554 213.909 618.422C207.625 628.99 197.513 636.141 183.573 639.876Z" fill="white"/>
<path d="M413.641 434.186C414.551 432.609 415.606 431.327 416.806 430.338C418.059 429.379 419.34 428.613 420.65 428.038C422.013 427.494 423.342 427.069 424.635 426.765C426.012 426.439 427.28 426.12 428.439 425.808C429.65 425.526 430.704 425.154 431.6 424.691C432.549 424.258 433.251 423.647 433.706 422.859C434.404 421.65 434.411 420.428 433.726 419.192C433.094 417.986 432.044 416.96 430.576 416.112C428.899 415.144 427.053 414.708 425.039 414.807C423.025 414.905 421.113 415.553 419.304 416.75L409.356 401.654C413.533 399.02 418.322 397.686 423.724 397.652C429.126 397.618 434.973 399.417 441.264 403.049C445.405 405.44 448.741 408.137 451.272 411.14C453.885 414.12 455.483 417.284 456.066 420.634C456.679 423.93 456.03 427.234 454.118 430.545C452.965 432.542 451.634 434.12 450.125 435.281C448.669 436.472 447.109 437.358 445.445 437.939C443.864 438.498 442.277 438.948 440.682 439.288C439.088 439.629 437.55 439.932 436.068 440.197C434.669 440.441 433.413 440.801 432.298 441.279C431.236 441.787 430.417 442.54 429.84 443.538L413.641 434.186ZM409.089 460.775C406.048 459.02 404.089 456.663 403.211 453.703C402.364 450.692 402.683 447.898 404.17 445.323C405.687 442.696 407.931 441.049 410.902 440.382C413.874 439.715 416.88 440.26 419.92 442.015C423.013 443.801 424.988 446.132 425.843 449.008C426.752 451.915 426.447 454.682 424.93 457.309C423.444 459.884 421.184 461.558 418.152 462.33C415.203 463.079 412.182 462.561 409.089 460.775Z" fill="white"/>
<path d="M234.983 559.91C237.855 551.076 241.761 543.555 246.702 537.348C251.937 531.236 257.52 526.051 263.452 521.793C269.677 517.631 275.857 514.105 281.993 511.216C288.519 508.128 294.508 505.192 299.96 502.406C305.707 499.716 310.572 496.74 314.556 493.477C318.833 490.31 321.69 486.517 323.126 482.101C325.328 475.328 324.065 469.22 319.339 463.777C314.906 458.429 308.577 454.418 300.352 451.744C290.952 448.688 281.278 448.474 271.329 451.1C261.381 453.726 252.526 458.987 244.762 466.882L179.108 402.075C197.163 384.503 219.654 372.768 246.58 366.871C273.507 360.973 304.596 363.754 339.846 375.213C363.053 382.757 382.563 392.681 398.376 404.984C414.579 417.088 425.91 431.19 432.369 447.289C438.924 463.094 439.186 480.272 433.156 498.823C429.518 510.012 424.549 519.304 418.248 526.697C412.241 534.186 405.394 540.262 397.707 544.925C390.409 549.39 382.961 553.318 375.363 556.708C367.765 560.098 360.409 563.242 353.296 566.139C346.573 568.837 340.683 571.968 335.626 575.534C330.863 579.195 327.573 583.822 325.754 589.417L234.983 559.91ZM240.453 697.451C223.415 691.913 211.137 682.224 203.618 668.385C196.195 654.251 194.829 639.97 199.519 625.542C204.305 610.819 213.76 600.218 227.883 593.74C242.007 587.262 257.587 586.792 274.625 592.331C291.957 597.965 304.283 607.507 311.604 620.956C319.218 634.501 320.632 648.634 315.846 663.357C311.156 677.786 301.653 688.533 287.338 695.6C273.413 702.469 257.784 703.086 240.453 697.451Z" fill="#EEF1F7"/>
<path d="M315.601 184.668C316.661 177.39 318.703 170.997 321.729 165.491C324.997 160.021 328.661 155.227 332.721 151.111C337.022 147.029 341.374 143.451 345.777 140.375C350.457 137.092 354.738 133.999 358.621 131.095C362.746 128.227 366.145 125.253 368.818 122.173C371.733 119.129 373.455 115.787 373.985 112.148C374.797 106.567 372.994 101.969 368.577 98.3531C364.402 94.7723 358.926 92.4886 352.149 91.5022C344.403 90.3748 336.824 91.5015 329.411 94.8823C321.998 98.2631 315.79 103.554 310.788 110.754L250.876 68.9573C262.616 52.8272 278.6 40.6595 298.826 32.4542C319.053 24.2489 343.689 22.26 372.734 26.4876C391.856 29.2708 408.411 34.4058 422.399 41.8925C436.664 49.1718 447.394 58.662 454.589 70.3631C461.82 81.8215 464.323 95.1933 462.098 110.479C460.756 119.698 458.121 127.615 454.192 134.228C450.505 140.876 445.974 146.535 440.598 151.203C435.5 155.664 430.212 159.726 424.736 163.389C419.259 167.051 413.939 170.489 408.775 173.701C403.889 176.707 399.711 179.939 396.241 183.398C393.013 186.892 391.064 190.944 390.393 195.554L315.601 184.668ZM338.271 291.285C324.233 289.242 313.353 283.322 305.634 273.527C297.949 263.489 294.972 252.526 296.703 240.637C298.468 228.506 304.429 218.968 314.586 212.022C324.742 205.076 336.84 202.625 350.878 204.669C365.159 206.747 376.056 212.545 383.569 222.063C391.324 231.615 394.319 242.457 392.553 254.588C390.822 266.477 384.844 276.137 374.617 283.567C364.667 290.791 352.552 293.363 338.271 291.285Z" fill="white"/>
<path d="M144.577 191.313C142.879 184.156 142.421 177.461 143.204 171.228C144.226 164.938 145.864 159.131 148.121 153.808C150.615 148.428 153.341 143.497 156.3 139.015C159.44 134.239 162.28 129.785 164.819 125.654C167.596 121.468 169.66 117.45 171.009 113.602C172.596 109.698 172.966 105.956 172.116 102.378C170.814 96.8911 167.444 93.2811 162.005 91.548C156.804 89.7583 150.871 89.6541 144.208 91.2354C136.592 93.0426 129.962 96.8838 124.317 102.759C118.673 108.634 114.852 115.841 112.856 124.378L41.756 107.61C46.7236 88.2876 57.0963 71.0849 72.8739 56.0015C88.6515 40.918 110.82 29.9878 139.378 23.2109C158.179 18.7494 175.461 17.4203 191.223 19.2236C207.167 20.7318 220.64 25.5983 231.642 33.8231C242.587 41.8093 249.843 53.3169 253.409 68.3458C255.56 77.4109 256.029 85.7413 254.815 93.337C253.838 100.876 251.712 107.807 248.436 114.128C245.341 120.154 241.923 125.879 238.182 131.302C234.441 136.726 230.763 141.882 227.147 146.772C223.712 151.367 221.02 155.912 219.07 160.406C217.358 164.845 217.039 169.33 218.115 173.862L144.577 191.313ZM204.952 282.065C191.149 285.34 178.854 283.848 168.067 277.588C157.223 271.09 150.415 261.996 147.641 250.307C144.81 238.379 146.836 227.315 153.716 217.115C160.597 206.914 170.939 200.176 184.743 196.901C198.784 193.569 211.051 194.942 221.543 201.02C232.273 207.041 239.053 216.015 241.884 227.943C244.658 239.632 242.661 250.816 235.893 261.493C229.307 271.876 218.993 278.733 204.952 282.065Z" fill="#EEF1F7"/>
<path d="M420.737 295.451C422.795 291.886 425.182 288.985 427.895 286.749C430.728 284.581 433.626 282.848 436.589 281.548C439.671 280.317 442.675 279.357 445.601 278.67C448.715 277.932 451.582 277.21 454.202 276.505C456.941 275.868 459.324 275.025 461.352 273.978C463.498 272.998 465.086 271.617 466.115 269.835C467.693 267.101 467.708 264.337 466.161 261.542C464.731 258.815 462.357 256.494 459.037 254.577C455.243 252.387 451.069 251.403 446.514 251.625C441.959 251.848 437.636 253.313 433.543 256.021L411.048 221.879C420.493 215.923 431.324 212.907 443.541 212.83C455.758 212.752 468.98 216.821 483.207 225.035C492.573 230.443 500.118 236.541 505.84 243.331C511.75 250.071 515.364 257.228 516.682 264.803C518.068 272.258 516.6 279.73 512.277 287.217C509.67 291.733 506.66 295.303 503.248 297.928C499.954 300.622 496.426 302.626 492.663 303.94C489.088 305.203 485.498 306.22 481.892 306.99C478.285 307.76 474.807 308.446 471.456 309.047C468.293 309.597 465.451 310.413 462.931 311.493C460.529 312.641 458.676 314.345 457.372 316.603L420.737 295.451ZM410.443 355.584C403.566 351.614 399.135 346.283 397.15 339.591C395.233 332.78 395.956 326.463 399.318 320.639C402.749 314.697 407.824 310.972 414.544 309.464C421.263 307.956 428.061 309.187 434.938 313.157C441.933 317.196 446.398 322.468 448.333 328.973C450.387 335.546 449.699 341.804 446.268 347.746C442.906 353.569 437.796 357.354 430.94 359.099C424.27 360.795 417.438 359.623 410.443 355.584Z" fill="#DCDFE6"/>
<path d="M370.61 602.461C371.712 598.345 373.321 594.806 375.434 591.844C377.685 588.918 380.118 586.409 382.732 584.316C385.483 582.26 388.229 580.496 390.97 579.025C393.885 577.453 396.558 575.964 398.988 574.557C401.556 573.186 403.713 571.706 405.459 570.115C407.342 568.562 408.559 566.756 409.111 564.698C409.956 561.543 409.231 558.775 406.935 556.396C404.776 554.053 401.78 552.368 397.948 551.341C393.569 550.168 389.132 550.302 384.639 551.745C380.145 553.187 376.215 555.81 372.85 559.613L341.216 531.509C349.063 523.025 359.083 517.108 371.275 513.759C383.467 510.409 397.774 510.935 414.197 515.335C425.008 518.232 434.184 522.308 441.723 527.563C449.436 532.717 454.966 538.904 458.312 546.123C461.695 553.205 462.229 561.067 459.913 569.709C458.516 574.922 456.464 579.298 453.756 582.836C451.184 586.411 448.194 589.359 444.785 591.68C441.55 593.901 438.233 595.879 434.834 597.615C431.435 599.351 428.142 600.968 424.953 602.466C421.939 603.864 419.316 605.44 417.086 607.195C414.992 608.986 413.596 611.185 412.898 613.792L370.61 602.461ZM376.426 665.331C368.488 663.204 362.631 659.061 358.854 652.903C355.113 646.608 354.144 640.099 355.945 633.377C357.783 626.518 361.858 621.435 368.172 618.128C374.485 614.82 381.611 614.23 389.548 616.357C397.623 618.521 403.498 622.595 407.175 628.579C410.989 634.6 411.977 641.04 410.139 647.899C408.338 654.621 404.244 659.773 397.857 663.354C391.644 666.835 384.5 667.494 376.426 665.331Z" fill="#DCDFE6"/>
<path d="M228.102 366.029C230.233 362.339 232.702 359.337 235.511 357.023C238.442 354.78 241.441 352.985 244.508 351.64C247.698 350.366 250.807 349.373 253.835 348.662C257.057 347.898 260.024 347.151 262.736 346.421C265.571 345.762 268.038 344.89 270.136 343.806C272.357 342.792 274 341.363 275.065 339.518C276.699 336.689 276.714 333.829 275.113 330.936C273.633 328.114 271.176 325.711 267.74 323.728C263.814 321.461 259.494 320.442 254.78 320.673C250.066 320.903 245.591 322.419 241.356 325.222L218.075 289.887C227.85 283.724 239.059 280.602 251.703 280.522C264.346 280.442 278.03 284.653 292.754 293.154C302.448 298.75 310.255 305.062 316.178 312.089C322.294 319.064 326.034 326.471 327.398 334.31C328.833 342.026 327.313 349.759 322.84 357.507C320.141 362.181 317.026 365.876 313.495 368.593C310.086 371.38 306.434 373.454 302.541 374.814C298.841 376.122 295.125 377.174 291.393 377.971C287.661 378.768 284.061 379.478 280.593 380.1C277.319 380.669 274.378 381.513 271.77 382.631C269.284 383.82 267.366 385.582 266.017 387.919L228.102 366.029ZM217.449 428.263C210.332 424.154 205.746 418.636 203.692 411.71C201.708 404.662 202.456 398.124 205.936 392.097C209.486 385.947 214.738 382.092 221.693 380.532C228.647 378.971 235.683 380.245 242.799 384.354C250.039 388.534 254.66 393.989 256.663 400.721C258.788 407.524 258.076 414.001 254.525 420.15C251.046 426.177 245.758 430.094 238.661 431.9C231.759 433.655 224.688 432.442 217.449 428.263Z" fill="#DCDFE6"/>
<path d="M222.927 391.034C225.75 380.496 229.869 371.435 235.282 363.851C241.047 356.36 247.277 349.935 253.972 344.577C261.019 339.312 268.052 334.797 275.073 331.031C282.538 327.008 289.383 323.195 295.608 319.593C302.184 316.084 307.708 312.294 312.181 308.222C317.004 304.244 320.121 299.62 321.533 294.351C323.698 286.273 321.839 279.187 315.958 273.093C310.427 267.094 302.754 262.779 292.938 260.149C281.721 257.143 270.358 257.486 258.848 261.179C247.339 264.871 237.274 271.586 228.653 281.323L147.622 209.353C167.719 187.632 193.381 172.485 224.609 163.912C255.836 155.338 292.482 156.687 334.548 167.959C362.241 175.379 385.744 185.818 405.057 199.275C424.814 212.474 438.979 228.317 447.552 246.802C456.219 264.936 457.588 285.067 451.658 307.195C448.082 320.543 442.826 331.746 435.89 340.805C429.304 349.958 421.646 357.505 412.915 363.448C404.629 369.134 396.133 374.198 387.428 378.642C378.723 383.086 370.288 387.226 362.121 391.061C354.4 394.639 347.683 398.674 341.971 403.167C336.609 407.754 333.034 413.384 331.245 420.058L222.927 391.034ZM237.84 552.015C217.508 546.567 202.504 535.959 192.828 520.19C183.246 504.07 180.761 487.404 185.372 470.193C190.078 452.631 200.516 439.616 216.686 431.149C232.856 422.682 251.107 421.172 271.439 426.62C292.121 432.162 307.172 442.595 316.592 457.919C326.362 473.336 328.894 489.826 324.189 507.389C319.577 524.6 309.092 537.79 292.734 546.96C276.82 555.872 258.522 557.557 237.84 552.015Z" fill="#6DABE4"/>
<path d="M153.85 310.988C153.378 309.23 153.218 307.577 153.367 306.029C153.575 304.466 153.939 303.018 154.459 301.685C155.038 300.336 155.677 299.097 156.377 297.967C157.12 296.763 157.79 295.641 158.389 294.601C159.046 293.546 159.528 292.537 159.835 291.575C160.199 290.598 160.264 289.67 160.028 288.791C159.667 287.443 158.808 286.574 157.45 286.184C156.15 285.778 154.682 285.795 153.045 286.233C151.174 286.735 149.561 287.732 148.206 289.226C146.852 290.72 145.958 292.53 145.525 294.656L127.816 291.014C128.907 286.199 131.351 281.869 135.147 278.025C138.942 274.181 144.348 271.319 151.365 269.439C155.984 268.202 160.25 267.75 164.163 268.083C168.118 268.343 171.485 269.451 174.266 271.407C177.03 273.305 178.907 276.1 179.897 279.792C180.493 282.019 180.669 284.077 180.423 285.965C180.235 287.837 179.758 289.566 178.993 291.153C178.27 292.666 177.465 294.107 176.579 295.475C175.692 296.844 174.819 298.146 173.959 299.381C173.142 300.542 172.508 301.686 172.058 302.812C171.666 303.922 171.619 305.034 171.918 306.147L153.85 310.988ZM169.433 333.009C166.041 333.918 162.989 333.636 160.276 332.164C157.547 330.634 155.798 328.433 155.028 325.561C154.243 322.63 154.665 319.879 156.295 317.306C157.924 314.734 160.434 312.993 163.826 312.085C167.276 311.16 170.32 311.412 172.959 312.841C175.657 314.254 177.398 316.426 178.183 319.357C178.953 322.229 178.538 325.009 176.94 327.699C175.385 330.315 172.882 332.085 169.433 333.009Z" fill="white"/>
</svg>
