<svg width="227" height="81" viewBox="0 0 227 81" fill="none" xmlns="http://www.w3.org/2000/svg">
<path d="M224.44 12.9913C220.936 11.6918 217.852 10.0961 215.309 8.26727C209.221 4.57657 201.474 0 187.085 0C172.697 0 165.226 4.42878 158.862 8.41506C152.498 12.401 148.347 14.7631 138.939 14.7631C129.532 14.7631 124.828 11.958 119.017 8.41506C113.207 4.87186 105.459 0 90.7935 0C76.1282 0 68.9344 4.42878 62.5699 8.41506C56.2059 12.401 52.0553 14.7631 42.6476 14.7631C33.2399 14.7631 28.5358 11.958 22.7253 8.41506C18.7754 5.6317 13.7805 3.31883 8.06003 1.62395C5.30916 0.890107 1.96459 1.48493 0.589163 2.95262C-0.786268 4.42031 0.328589 6.20476 3.07945 6.93861C7.42395 8.33565 11.2658 10.1356 14.424 12.2533C20.7879 16.2393 28.2588 20.6683 42.6476 20.6683C57.0364 20.6683 64.5067 16.2395 70.8712 12.2533C77.2352 8.26727 81.3858 5.90523 90.7935 5.90523C100.201 5.90523 104.905 8.71035 110.716 12.2533C116.526 15.7965 124.274 20.6683 138.939 20.6683C153.605 20.6683 160.799 16.2395 167.163 12.2533C173.527 8.26727 177.678 5.90523 187.085 5.90523C196.493 5.90523 201.197 8.71035 207.008 12.2533C210.232 14.4624 214.056 16.4029 218.352 18.0107C220.95 18.9076 224.419 18.5112 226.1 17.1248C227.782 15.7391 227.038 13.8882 224.44 12.9913Z" fill="#F3F7FF" fill-opacity="0.58"/>
<path d="M224.44 42.7658C220.936 41.4662 217.852 39.8705 215.309 38.0417C209.221 34.351 201.474 29.7744 187.085 29.7744C172.697 29.7744 165.226 34.2032 158.862 38.1895C152.497 42.1757 148.347 44.5375 138.939 44.5375C129.532 44.5375 124.828 41.7324 119.017 38.1895C113.207 34.6466 105.459 29.7744 90.7935 29.7744C76.1282 29.7744 68.9344 34.2032 62.5699 38.1895C56.2059 42.1755 52.0553 44.5375 42.6476 44.5375C33.2399 44.5375 28.5358 41.7324 22.7253 38.1895C18.7754 35.4061 13.7805 33.0932 8.06003 31.3984C5.30916 30.6645 1.96459 31.2593 0.589163 32.727C-0.786268 34.1947 0.328589 35.9792 3.07945 36.713C7.42395 38.1101 11.2658 39.9101 14.424 42.0277C20.7879 46.0137 28.2588 50.4427 42.6476 50.4427C57.0364 50.4427 64.5067 46.0139 70.8712 42.0277C77.2352 38.0417 81.3858 35.6796 90.7935 35.6796C100.201 35.6796 104.905 38.4848 110.716 42.0277C116.526 45.5706 124.274 50.4427 138.939 50.4427C153.605 50.4427 160.799 46.0139 167.163 42.0277C173.528 38.0414 177.678 35.6796 187.085 35.6796C196.493 35.6796 201.197 38.4848 207.008 42.0277C210.232 44.2368 214.056 46.1773 218.352 47.7851C220.95 48.682 224.419 48.2856 226.1 46.8993C227.782 45.5135 227.038 43.6626 224.44 42.7658Z" fill="#F3F7FF" fill-opacity="0.58"/>
<path d="M3.07936 66.4874C7.42387 67.8845 11.2658 69.6845 14.4239 71.8021C20.7879 75.7881 28.2588 80.2171 42.6476 80.2171C57.0364 80.2171 64.5068 75.7884 70.8713 71.8021C77.2352 67.8161 81.3859 65.4541 90.7936 65.4541C100.201 65.4541 104.905 68.2592 110.716 71.8021C116.526 75.3453 124.274 80.2171 138.94 80.2171C153.605 80.2171 160.799 75.7884 167.163 71.8021C173.527 67.8161 177.678 65.4541 187.086 65.4541C196.493 65.4541 201.197 68.2592 207.008 71.8021C210.233 74.0113 214.056 75.9517 218.353 77.5598C220.95 78.4567 224.419 78.06 226.1 76.6739C227.781 75.2879 227.038 73.4371 224.44 72.5402C220.936 71.2406 217.852 69.6449 215.309 67.8161C209.221 64.1254 201.474 59.5488 187.085 59.5488C172.697 59.5488 165.226 63.9776 158.861 67.9639C152.497 71.9499 148.347 74.3119 138.939 74.3119C129.531 74.3119 124.827 71.5068 119.017 67.9639C113.206 64.4207 105.458 59.5488 90.7931 59.5488C76.1278 59.5488 68.9339 63.9776 62.5694 67.9639C56.2054 71.9499 52.0548 74.3119 42.6471 74.3119C33.2393 74.3119 28.5363 71.5068 22.7252 67.9636C18.7753 65.1802 13.7804 62.8674 8.05995 61.1725C5.30908 60.4387 1.9645 61.0335 0.589069 62.5012C-0.786365 63.9689 0.329024 65.7536 3.07936 66.4874Z" fill="#F3F7FF" fill-opacity="0.58"/>
</svg>
